<svg data-v-423bf9ae="" xmlns="http://www.w3.org/2000/svg" viewBox="0 0 472 112" class="iconLeft"><!----><!----><!----><g data-v-423bf9ae="" id="d3046b05-fab4-482d-90f4-c8617c544b65" fill="#163530" transform="matrix(5.842259288922937,0,0,5.842259288922937,124.18705389862063,5.047006333508847)"><path d="M6.23 6.47L6.23 6.47L6.23 6.47Q5.96 5.95 5.60 5.67L5.60 5.67L5.60 5.67Q5.24 5.39 4.87 5.29L4.87 5.29L4.87 5.29Q4.49 5.19 4.15 5.26L4.15 5.26L4.15 5.26Q3.81 5.33 3.58 5.50L3.58 5.50L3.58 5.50Q3.36 5.67 3.30 5.91L3.30 5.91L3.30 5.91Q3.25 6.15 3.44 6.40L3.44 6.40L3.44 6.40Q3.71 6.73 4.20 7.13L4.20 7.13L4.20 7.13Q4.69 7.53 5.21 7.98L5.21 7.98L5.21 7.98Q5.74 8.43 6.22 8.90L6.22 8.90L6.22 8.90Q6.69 9.38 6.92 9.87L6.92 9.87L6.92 9.87Q7.20 10.50 7.15 11.19L7.15 11.19L7.15 11.19Q7.11 11.89 6.75 12.46L6.75 12.46L6.75 12.46Q6.40 13.03 5.74 13.41L5.74 13.41L5.74 13.41Q5.08 13.78 4.14 13.78L4.14 13.78L4.14 13.78Q3.58 13.78 3.04 13.60L3.04 13.60L3.04 13.60Q2.51 13.43 2.03 13.11L2.03 13.11L2.03 13.11Q1.55 12.80 1.16 12.36L1.16 12.36L1.16 12.36Q0.76 11.93 0.49 11.40L0.49 11.40L1.96 10.32L1.96 10.32Q2.09 10.58 2.28 10.84L2.28 10.84L2.28 10.84Q2.48 11.09 2.72 11.31L2.72 11.31L2.72 11.31Q2.95 11.52 3.21 11.68L3.21 11.68L3.21 11.68Q3.47 11.84 3.71 11.91L3.71 11.91L3.71 11.91Q4.13 12.03 4.50 11.94L4.50 11.94L4.50 11.94Q4.87 11.86 5.08 11.63L5.08 11.63L5.08 11.63Q5.29 11.40 5.29 11.05L5.29 11.05L5.29 11.05Q5.29 10.71 4.97 10.30L4.97 10.30L4.97 10.30Q4.62 9.87 4.03 9.41L4.03 9.41L4.03 9.41Q3.44 8.95 2.87 8.43L2.87 8.43L2.87 8.43Q2.30 7.91 1.88 7.31L1.88 7.31L1.88 7.31Q1.46 6.71 1.46 5.99L1.46 5.99L1.46 5.99Q1.46 5.45 1.68 4.98L1.68 4.98L1.68 4.98Q1.90 4.52 2.27 4.20L2.27 4.20L2.27 4.20Q2.65 3.88 3.14 3.70L3.14 3.70L3.14 3.70Q3.63 3.51 4.16 3.51L4.16 3.51L4.16 3.51Q4.83 3.51 5.41 3.70L5.41 3.70L5.41 3.70Q5.99 3.89 6.36 4.24L6.36 4.24L6.36 4.24Q6.62 4.48 6.76 4.77L6.76 4.77L6.76 4.77Q6.90 5.07 6.90 5.37L6.90 5.37L6.90 5.37Q6.90 5.67 6.74 5.96L6.74 5.96L6.74 5.96Q6.58 6.24 6.23 6.47ZM10.12 3.72L10.12 3.72L10.12 7.27L10.12 7.27Q10.23 7.03 10.46 6.85L10.46 6.85L10.46 6.85Q10.68 6.66 10.96 6.55L10.96 6.55L10.96 6.55Q11.23 6.43 11.52 6.36L11.52 6.36L11.52 6.36Q11.80 6.29 12.05 6.27L12.05 6.27L12.05 6.27Q12.57 6.24 13.08 6.41L13.08 6.41L13.08 6.41Q13.58 6.58 14 7.01L14 7.01L14 7.01Q14.62 7.66 14.62 8.86L14.62 8.86L14.62 13.52L12.87 13.52L12.87 13.52Q12.87 13.30 12.87 12.90L12.87 12.90L12.87 12.90Q12.88 12.50 12.88 12.03L12.88 12.03L12.88 12.03Q12.88 11.56 12.88 11.05L12.88 11.05L12.88 11.05Q12.88 10.54 12.87 10.09L12.87 10.09L12.87 10.09Q12.85 9.63 12.82 9.28L12.82 9.28L12.82 9.28Q12.80 8.93 12.75 8.76L12.75 8.76L12.75 8.76Q12.64 8.34 12.35 8.12L12.35 8.12L12.35 8.12Q12.05 7.90 11.69 7.90L11.69 7.90L11.69 7.90Q11.21 7.90 10.96 8.15L10.96 8.15L10.96 8.15Q10.70 8.40 10.70 8.81L10.70 8.81L10.70 8.81Q10.54 8.76 10.37 8.60L10.37 8.60L10.37 8.60Q10.19 8.43 10.12 8.23L10.12 8.23L10.12 13.52L8.36 13.52L8.36 5.15L8.36 5.15Q8.36 4.48 8.83 4.10L8.83 4.10L8.83 4.10Q9.31 3.71 10.12 3.72ZM21.42 13.52L21.42 12.73L21.42 12.73Q20.89 13.24 20.27 13.48L20.27 13.48L20.27 13.48Q19.64 13.72 19.01 13.70L19.01 13.70L19.01 13.70Q18.38 13.68 17.79 13.41L17.79 13.41L17.79 13.41Q17.19 13.15 16.74 12.65L16.74 12.65L16.74 12.65Q16.28 12.15 16.01 11.46L16.01 11.46L16.01 11.46Q15.74 10.77 15.74 9.88L15.74 9.88L15.74 9.88Q15.74 9.04 16.03 8.33L16.03 8.33L16.03 8.33Q16.32 7.62 16.82 7.11L16.82 7.11L16.82 7.11Q17.32 6.61 17.96 6.34L17.96 6.34L17.96 6.34Q18.59 6.06 19.28 6.09L19.28 6.09L19.28 6.09Q19.95 6.12 20.36 6.39L20.36 6.39L20.36 6.39Q20.76 6.66 20.95 7.03L20.95 7.03L20.95 7.03Q21.14 7.39 21.15 7.76L21.15 7.76L21.15 7.76Q21.15 8.13 21.03 8.36L21.03 8.36L21.03 8.36Q20.79 8.01 20.36 7.89L20.36 7.89L20.36 7.89Q19.92 7.77 19.52 7.77L19.52 7.77L19.52 7.77Q18.87 7.77 18.44 8.09L18.44 8.09L18.44 8.09Q18.00 8.40 17.78 8.88L17.78 8.88L17.78 8.88Q17.56 9.35 17.55 9.91L17.55 9.91L17.55 9.91Q17.54 10.46 17.76 10.93L17.76 10.93L17.76 10.93Q17.98 11.41 18.42 11.73L18.42 11.73L18.42 11.73Q18.86 12.04 19.52 12.04L19.52 12.04L19.52 12.04Q20.08 12.04 20.44 11.79L20.44 11.79L20.44 11.79Q20.80 11.54 21.02 11.14L21.02 11.14L21.02 11.14Q21.24 10.74 21.33 10.24L21.33 10.24L21.33 10.24Q21.42 9.74 21.42 9.25L21.42 9.25L21.42 7.04L21.42 6.27L23.24 6.27L23.24 13.52L21.42 13.52ZM24.64 13.52L24.64 6.24L26.21 6.24L26.21 7.17L26.21 7.17Q26.45 6.68 26.82 6.39L26.82 6.39L26.82 6.39Q27.19 6.10 27.64 6.08L27.64 6.08L27.64 6.08Q28.22 6.03 28.59 6.29L28.59 6.29L28.59 6.29Q28.95 6.55 29.10 6.92L29.10 6.92L29.10 6.92Q29.25 7.29 29.18 7.68L29.18 7.68L29.18 7.68Q29.11 8.06 28.80 8.29L28.80 8.29L28.80 8.29Q28.67 7.94 28.32 7.83L28.32 7.83L28.32 7.83Q27.96 7.73 27.57 7.86L27.57 7.86L27.57 7.86Q27.17 7.99 26.86 8.36L26.86 8.36L26.86 8.36Q26.54 8.72 26.49 9.31L26.49 9.31L26.49 9.31Q26.46 9.65 26.46 9.98L26.46 9.98L26.46 9.98Q26.46 10.30 26.46 10.58L26.46 10.58L26.46 13.52L24.64 13.52ZM35.55 10.72L35.55 10.72L35.55 10.72Q34.79 10.92 34.17 10.86L34.17 10.86L34.17 10.86Q33.54 10.81 33.15 10.56L33.15 10.56L33.15 10.56Q32.75 10.32 32.61 9.91L32.61 9.91L32.61 9.91Q32.48 9.49 32.69 8.97L32.69 8.97L32.69 8.97Q33.12 9.34 33.70 9.37L33.70 9.37L33.70 9.37Q34.27 9.41 34.80 9.35L34.80 9.35L34.80 9.35Q35.25 9.31 35.48 9.16L35.48 9.16L35.48 9.16Q35.71 9.00 35.77 8.80L35.77 8.80L35.77 8.80Q35.83 8.60 35.73 8.37L35.73 8.37L35.73 8.37Q35.63 8.15 35.41 7.97L35.41 7.97L35.41 7.97Q35.20 7.78 34.88 7.67L34.88 7.67L34.88 7.67Q34.57 7.56 34.19 7.57L34.19 7.57L34.19 7.57Q33.78 7.60 33.42 7.77L33.42 7.77L33.42 7.77Q33.05 7.94 32.77 8.23L32.77 8.23L32.77 8.23Q32.49 8.53 32.33 8.92L32.33 8.92L32.33 8.92Q32.16 9.31 32.14 9.79L32.14 9.79L32.14 9.79Q32.13 10.18 32.24 10.56L32.24 10.56L32.24 10.56Q32.34 10.93 32.55 11.25L32.55 11.25L32.55 11.25Q32.76 11.56 33.05 11.78L33.05 11.78L33.05 11.78Q33.35 12.00 33.73 12.05L33.73 12.05L33.73 12.05Q34.26 12.15 34.82 11.98L34.82 11.98L34.82 11.98Q35.38 11.82 35.81 11.37L35.81 11.37L37.28 12.08L37.28 12.08Q36.71 12.94 35.92 13.31L35.92 13.31L35.92 13.31Q35.14 13.68 34.13 13.68L34.13 13.68L34.13 13.68Q33.19 13.68 32.49 13.35L32.49 13.35L32.49 13.35Q31.78 13.02 31.31 12.47L31.31 12.47L31.31 12.47Q30.84 11.93 30.61 11.24L30.61 11.24L30.61 11.24Q30.38 10.54 30.39 9.82L30.39 9.82L30.39 9.82Q30.41 9.10 30.67 8.41L30.67 8.41L30.67 8.41Q30.94 7.71 31.44 7.18L31.44 7.18L31.44 7.18Q32.00 6.58 32.75 6.33L32.75 6.33L32.75 6.33Q33.50 6.08 34.29 6.08L34.29 6.08L34.29 6.08Q35.15 6.08 35.78 6.37L35.78 6.37L35.78 6.37Q36.41 6.66 36.81 7.12L36.81 7.12L36.81 7.12Q37.20 7.57 37.32 8.13L37.32 8.13L37.32 8.13Q37.45 8.68 37.30 9.20L37.30 9.20L37.30 9.20Q37.16 9.72 36.72 10.13L36.72 10.13L36.72 10.13Q36.29 10.54 35.55 10.72ZM46.87 3.54L46.87 3.54L46.87 3.54Q48.94 3.54 50.41 5.04L50.41 5.04L50.41 5.04Q51.90 6.52 51.90 8.68L51.90 8.68L51.90 8.68Q51.90 10.82 50.44 12.28L50.44 12.28L50.44 12.28Q48.97 13.75 46.89 13.75L46.89 13.75L46.89 13.75Q44.69 13.75 43.25 12.24L43.25 12.24L43.25 12.24Q41.80 10.74 41.80 8.64L41.80 8.64L41.80 8.64Q41.80 8.43 41.83 8.18L41.83 8.18L41.83 8.18Q41.85 7.94 41.89 7.67L41.89 7.67L41.89 7.67Q41.93 7.41 42 7.16L42 7.16L42 7.16Q42.07 6.92 42.18 6.71L42.18 6.71L42.18 6.71Q42.41 6.26 42.81 5.98L42.81 5.98L42.81 5.98Q43.22 5.70 43.67 5.60L43.67 5.60L43.67 5.60Q44.13 5.50 44.58 5.58L44.58 5.58L44.58 5.58Q45.04 5.66 45.37 5.89L45.37 5.89L45.37 5.89Q45.71 6.13 45.86 6.55L45.86 6.55L45.86 6.55Q46.00 6.96 45.86 7.52L45.86 7.52L45.86 7.52Q45.60 7.20 45.21 7.11L45.21 7.11L45.21 7.11Q44.83 7.03 44.48 7.20L44.48 7.20L44.48 7.20Q44.13 7.36 43.89 7.78L43.89 7.78L43.89 7.78Q43.65 8.20 43.68 8.89L43.68 8.89L43.68 8.89Q43.74 10.35 44.83 11.23L44.83 11.23L44.83 11.23Q45.72 11.97 46.89 11.97L46.89 11.97L46.89 11.97Q48.19 11.97 49.11 11.02L49.11 11.02L49.11 11.02Q50.04 10.05 50.04 8.67L50.04 8.67L50.04 8.67Q50.04 7.28 49.11 6.31L49.11 6.31L49.11 6.31Q48.16 5.36 46.84 5.36L46.84 5.36L46.84 5.36Q46.23 5.36 45.72 5.54L45.72 5.54L45.72 5.54Q45.47 5.32 45.13 5.19L45.13 5.19L45.13 5.19Q44.79 5.07 44.40 5.05L44.40 5.05L44.40 5.05Q44.02 5.04 43.63 5.14L43.63 5.14L43.63 5.14Q43.25 5.24 42.91 5.45L42.91 5.45L42.91 5.45Q43.50 4.72 44.32 4.23L44.32 4.23L44.32 4.23Q45.51 3.54 46.87 3.54ZM54.82 6.27L54.82 7.11L54.82 7.11Q54.94 6.86 55.17 6.68L55.17 6.68L55.17 6.68Q55.40 6.50 55.68 6.37L55.68 6.37L55.68 6.37Q55.96 6.24 56.25 6.17L56.25 6.17L56.25 6.17Q56.55 6.10 56.80 6.09L56.80 6.09L56.80 6.09Q57.33 6.06 57.85 6.24L57.85 6.24L57.85 6.24Q58.37 6.41 58.80 6.85L58.80 6.85L58.80 6.85Q59.43 7.50 59.43 8.74L59.43 8.74L59.43 13.52L57.64 13.52L57.64 13.52Q57.64 13.29 57.64 12.88L57.64 12.88L57.64 12.88Q57.65 12.47 57.65 11.99L57.65 11.99L57.65 11.99Q57.65 11.51 57.65 10.99L57.65 10.99L57.65 10.99Q57.65 10.47 57.64 10.01L57.64 10.01L57.64 10.01Q57.62 9.55 57.60 9.18L57.60 9.18L57.60 9.18Q57.57 8.82 57.53 8.65L57.53 8.65L57.53 8.65Q57.41 8.20 57.10 7.98L57.10 7.98L57.10 7.98Q56.78 7.76 56.42 7.76L56.42 7.76L56.42 7.76Q55.94 7.76 55.68 8.02L55.68 8.02L55.68 8.02Q55.41 8.27 55.41 8.69L55.41 8.69L55.41 8.69Q55.24 8.64 55.08 8.46L55.08 8.46L55.08 8.46Q54.91 8.29 54.82 8.09L54.82 8.09L54.82 8.47L54.82 13.52L53.02 13.52L53.02 6.27L54.82 6.27Z"></path></g><defs data-v-423bf9ae=""><linearGradient data-v-423bf9ae="" gradientTransform="rotate(25)" id="31817376-ec08-4345-9101-0b0121ac4072" x1="0%" y1="0%" x2="100%" y2="0%"><stop data-v-423bf9ae="" offset="0%" style="stop-color: rgb(2, 24, 2); stop-opacity: 1;"></stop><stop data-v-423bf9ae="" offset="100%" style="stop-color: rgb(96, 219, 204); stop-opacity: 1;"></stop></linearGradient></defs><g data-v-423bf9ae="" id="50e8cdee-c3c6-4ae0-8301-93e76a54b463" transform="matrix(1.1110889010959202,0,0,1.1110889010959202,-1.7711529424617751,0.4548215819835306)" stroke="none" fill="url(#31817376-ec08-4345-9101-0b0121ac4072)"><path d="M95.447 31.804c-8.74-21.64-31.32-33.532-53.419-29.609.056.125.119.243.171.371a9.69 9.69 0 0 1 .705 3.86c19.05-3.308 38.513 6.292 47.229 24.067L67.669 39.57C60.728 23.42 52.205 13.916 43.615 9.529a9.72 9.72 0 0 1-1.515 4.026c6.945 3.793 14.813 11.944 21.569 27.63L34.75 52.869c-6.18-16.356-6.093-27.954-3.515-35.374a9.726 9.726 0 0 1-3.754-2.126c-3.511 8.995-3.147 22.169 3.27 39.119L8.405 63.512c-5.903-19.045 2.726-42.494 19.452-52.167A7.009 7.009 0 1 0 30.677.438a7.002 7.002 0 0 0-4.368 6.822C6.422 18.055-3.332 46.365 5.472 68.159c8.873 21.959 31.994 33.874 54.4 29.418a9.427 9.427 0 0 1-.927-1.761 9.392 9.392 0 0 1-.614-2.33C38.509 97.079 18.177 86.649 9.908 67.56l22.451-9.07c7.096 16.687 17.457 27.979 26.167 32.453-.177-1.57.86-3.617 1.886-4.248-6.914-4.306-17.339-14.255-24.048-29.826l28.925-11.685c5.834 15.48 5.524 30.027 3.764 38.02 1.369-.229 3.516.504 4.562 1.646 2.733-9.379 1.956-24.883-4.323-41.284l22.544-9.11c7.096 19.197-2.372 42.487-18.511 53.86-1.91-2.189-5.062-3.049-7.907-1.897a7.001 7.001 0 0 0-3.876 9.121 7.015 7.015 0 0 0 9.128 3.875 7.012 7.012 0 0 0 4.358-7.014c18.614-12.553 29.16-38.971 20.419-60.597z"></path></g><!----></svg>